<svg xmlns="http://www.w3.org/2000/svg" width="140" height="140" viewBox="0 0 140 140" fill="none" stroke="#ffd6e4" stroke-opacity=".16" stroke-width="1.6" stroke-linecap="round" stroke-linejoin="round">
      <defs>
            <path id="h" d="M12 21s-7.5-4.6-9.8-9.1C.6 8.6 2.5 4.5 6.6 4.5c2.3 0 3.9 1.3 5.4 3.3 1.5-2 3.1-3.3 5.4-3.3 4.1 0 6 4.1 4.4 7.4C19.5 16.4 12 21 12 21z"/>
            <path id="s" d="M0-6 1.4-1.4 6 0 1.4 1.4 0 6-1.4 1.4-6 0-1.4-1.4z"/>
      </defs>
      <use href="#h" transform="translate(10 12) rotate(-14 12 12)"/>
      <use href="#h" transform="translate(82 54) scale(.72) rotate(12 12 12)"/>
      <use href="#h" transform="translate(28 92) scale(1.12) rotate(8 12 12)"/>
      <use href="#h" transform="translate(104 104) scale(.6) rotate(-20 12 12)"/>
      <use href="#s" transform="translate(112 22)"/>
      <use href="#s" transform="translate(62 124) scale(.7)"/>
      <use href="#s" transform="translate(54 40) scale(.55)"/>
</svg>
